<?xml version="1.0" encoding="utf-8"?>
<svg viewBox="0 0 500 500" xmlns="http://www.w3.org/2000/svg">
  <path fill="rgb(254,0,0)" stroke="rgb(254,0,0)" stroke-width="0" d="M 139.407 45.39 C 145.228 44.546 152.791 44.185 159.038 46.545 C 165.837 49.113 173.609 55.922 178.379 61.268 C 182.546 65.937 184.726 71.06 187.04 76.279 C 189.335 81.456 190.985 86.955 192.236 92.446 C 193.485 97.926 194.114 102.487 194.546 109.189 C 195.097 117.752 195.042 130.161 194.546 140.367 C 194.059 150.361 191.054 168.129 191.659 169.813 C 191.784 170.161 192.017 169.947 192.236 169.813 C 192.63 169.571 193.254 168.3 193.68 167.792 C 194 167.409 193.973 167.708 194.546 166.926 C 196.816 163.822 210.038 139.463 214.754 134.305 C 217.069 131.771 218.019 131.536 220.239 130.84 C 222.797 130.038 226.483 129.399 229.476 130.263 C 232.754 131.209 237.033 133.937 239.003 136.903 C 240.945 139.827 242.206 143.169 241.312 147.873 C 239.926 155.169 230.785 169.028 225.146 177.318 C 220.236 184.537 215.653 189.794 209.846 195.506 C 203.784 201.469 193.212 203.404 189.349 212.249 C 184.324 223.757 190.669 248.265 189.349 263.346 C 188.212 276.342 185.779 288.979 182.998 297.988 C 180.881 304.849 179.365 308.265 175.493 314.155 C 170.528 321.704 160.819 333.403 153.841 339.27 C 148.302 343.928 143.224 346.907 137.675 348.508 C 132.429 350.021 128.465 350.395 121.509 349.085 C 111.022 347.111 89.889 339.1 79.361 332.919 C 71.164 328.107 65.438 322.455 61.174 317.041 C 57.603 312.508 55.549 308.528 54.245 303.185 C 52.78 297.173 53.036 288.489 53.668 282.399 C 54.212 277.159 55.015 272.972 57.132 268.543 C 59.398 263.803 65.287 256.961 67.236 254.974 C 68.079 254.115 67.931 254.637 68.968 253.82 C 71.713 251.655 81.049 242.135 86.867 238.231 C 91.885 234.864 101.679 232.963 101.59 231.014 C 101.504 229.157 90.717 229.081 87.733 226.683 C 85.292 224.723 84.629 223.783 83.691 218.889 C 81.541 207.669 82.77 165.281 83.691 149.027 C 84.279 138.66 84.78 135.084 86.578 126.51 C 88.784 115.993 93.25 99.863 96.971 90.136 C 99.892 82.5 102.596 77.343 106.208 71.66 C 109.74 66.105 114.749 60.022 118.333 56.36 C 120.991 53.645 122.501 52.289 125.55 50.586 C 129.231 48.531 134.212 46.143 139.407 45.39 Z M 143.737 75.991 C 142.188 76.565 140.405 78.808 139.696 79.455 C 139.361 79.76 139.502 79.506 139.118 80.032 C 137.579 82.147 128.953 94.147 125.262 102.549 C 121.315 111.532 118.419 123.994 116.601 132.573 C 115.142 139.46 114.775 141.83 114.292 150.471 C 113.478 165.02 116.03 205.589 114.292 216.868 C 113.499 222.013 109.053 225.155 110.827 225.529 C 114.469 226.295 149.896 210.325 158.749 196.083 C 167.602 181.841 163.283 156.363 163.945 140.078 C 164.498 126.486 165.429 114.743 163.368 104.282 C 161.55 95.054 156.49 84.476 153.553 80.032 C 151.908 77.544 150.634 76.642 148.934 75.991 C 147.343 75.381 145.271 75.421 143.737 75.991 Z M 158.749 232.457 C 151.29 229.41 117.031 255.288 105.631 263.058 C 98.642 267.82 95.475 270.779 91.774 274.605 C 88.594 277.894 85.37 280.595 84.269 284.42 C 83.114 288.431 83.29 294.551 85.423 298.277 C 87.617 302.107 92.102 304.075 97.548 306.937 C 104.957 310.832 121.016 318.436 127.571 318.485 C 131.516 318.514 132.618 317.09 135.654 314.443 C 140.4 310.306 148.557 301.132 152.398 292.503 C 156.521 283.241 157.727 270.494 158.749 260.171 C 159.702 250.538 164.179 234.675 158.749 232.457 Z M 354.079 53.232 C 361.44 51.981 373.976 51.847 381.216 53.809 C 387.139 55.415 392.078 58.997 395.361 62.181 C 398.063 64.801 399.465 67.242 400.557 70.841 C 401.877 75.19 402.567 80.429 401.712 87.008 C 400.547 95.965 396.525 109.778 391.319 120.495 C 385.896 131.659 377.492 143.753 369.38 152.539 C 361.964 160.569 349.942 162.888 345.13 171.881 C 339.862 181.725 342.928 197.815 341.089 210.564 C 339.263 223.217 330.925 241.392 334.16 248.093 C 336.459 252.856 343.305 252.497 349.46 253.578 C 357.081 254.916 370.082 255.592 377.174 254.155 C 382.541 253.068 387.067 250.998 389.587 248.093 C 391.822 245.517 392.735 241.101 392.474 238.278 C 392.247 235.821 389.572 234.102 389.01 231.927 C 388.476 229.862 388.457 227.77 389.01 225.576 C 389.64 223.078 391.325 219.693 393.052 217.781 C 394.582 216.088 396.317 215.013 398.537 214.317 C 401.096 213.515 404.558 212.748 407.774 213.74 C 411.707 214.952 417.532 219.778 420.188 222.689 C 422.156 224.846 422.967 226.65 423.652 229.04 C 424.388 231.611 424.687 233.944 424.229 237.7 C 423.549 243.285 420.839 254.044 417.878 260.218 C 415.329 265.536 412.254 269.695 408.352 273.209 C 404.457 276.717 398.89 279.447 394.495 281.292 C 390.669 282.898 388.66 283.59 383.525 284.179 C 375.445 285.104 358.239 285.34 348.306 284.179 C 340.163 283.227 333.137 275.657 327.52 278.982 C 320.178 283.329 317.985 307.74 312.22 317.955 C 307.555 326.22 302.587 332.445 296.92 337.296 C 291.801 341.678 286.579 344.339 280.176 346.534 C 273.097 348.962 261.646 351.216 255.927 350.576 C 252.051 350.142 249.102 347.826 247.555 346.534 C 246.608 345.744 247.001 345.263 246.112 344.225 C 244.488 342.329 239.833 338.827 237.162 335.853 C 234.555 332.949 232.176 330.315 230.234 326.615 C 228.028 322.412 226.286 318.666 225.038 311.603 C 223.096 300.614 221.189 276.813 222.728 263.682 C 223.955 253.216 231.153 239.77 230.811 237.7 C 230.724 237.168 230.479 237.433 229.945 237.412 C 228.664 237.362 224.74 238.981 221.862 238.567 C 218.546 238.089 213.631 236.666 211.181 233.948 C 208.616 231.102 206.707 225.479 207.139 221.534 C 207.572 217.588 209.924 213.367 213.779 210.276 C 218.749 206.29 227.602 206.427 236.874 201.615 C 249.923 194.843 271.16 178.253 285.373 169.86 C 296.97 163.012 309.751 163.656 316.262 153.694 C 324.204 141.542 320.123 111.595 323.19 96.823 C 325.467 85.856 328.075 77.485 331.273 70.841 C 333.759 65.677 335.924 61.928 339.645 59.005 C 343.472 56 348.189 54.232 354.079 53.232 Z M 358.987 83.832 C 353.534 89.162 349.352 121.83 349.172 126.557 C 349.121 127.883 349.198 128.449 349.749 128.289 C 351.18 127.875 357.916 118.578 361.296 112.123 C 365.191 104.686 370.305 89.076 371.112 85.564 C 371.375 84.416 371.696 84.228 371.112 83.832 C 369.84 82.97 362.248 80.645 358.987 83.832 Z M 312.798 190.068 C 309.473 190.092 268.183 214.894 267.763 218.936 C 267.506 221.407 277.719 218.383 283.352 220.091 C 290.21 222.171 300.9 235.033 305.869 232.215 C 311.838 228.831 312.24 197.418 312.798 192.377 C 312.975 190.773 313.743 190.061 312.798 190.068 Z M 261.412 248.959 C 260.004 249.08 259.444 248.484 258.525 249.537 C 256.603 251.738 254.132 259.937 253.329 267.435 C 252.259 277.42 252.512 296.723 255.061 305.541 C 256.818 311.621 260.279 316.645 263.144 318.243 C 265.175 319.377 267.2 318.407 269.495 317.666 C 272.307 316.758 275.724 315.566 278.733 312.47 C 282.91 308.171 287.556 299.413 290.858 291.684 C 294.408 283.372 301.861 271.061 298.941 263.971 C 295.956 256.722 279.223 250.956 272.382 248.959 C 267.838 247.633 263.794 248.754 261.412 248.959 Z" style="fill: rgb(166, 209, 48); stroke: rgb(129, 151, 57); stroke-width: 2px;"/>
  <circle style="stroke-width: 0px; stroke-miterlimit: 1; fill-opacity: 0.25; fill: rgb(194, 70, 42);" cx="209.414" cy="205.405" r="95"/>
</svg>